<svg width="24" height="24" viewBox="0 0 24 24" fill="none" xmlns="http://www.w3.org/2000/svg">
<mask id="path-1-inside-1_246_175" fill="white">
<path d="M21.9502 18.7077C20.5505 20.784 18.5364 22.3704 16.19 23.2447C13.8437 24.119 11.2825 24.2375 8.86548 23.5834C6.44842 22.9293 4.29651 21.5355 2.71122 19.5973C1.12593 17.659 0.186668 15.2734 0.0250285 12.7746C-0.136611 10.2759 0.487464 7.78912 1.80983 5.66278C3.13219 3.53643 5.08659 1.87702 7.39924 0.916994C9.71189 -0.0430286 12.2669 -0.255559 14.7064 0.309175C17.1459 0.873909 19.3476 2.18762 21.0031 4.06626L12 12L21.9502 18.7077Z"/>
</mask>
<path d="M21.9502 18.7077C20.5505 20.784 18.5364 22.3704 16.19 23.2447C13.8437 24.119 11.2825 24.2375 8.86548 23.5834C6.44842 22.9293 4.29651 21.5355 2.71122 19.5973C1.12593 17.659 0.186668 15.2734 0.0250285 12.7746C-0.136611 10.2759 0.487464 7.78912 1.80983 5.66278C3.13219 3.53643 5.08659 1.87702 7.39924 0.916994C9.71189 -0.0430286 12.2669 -0.255559 14.7064 0.309175C17.1459 0.873909 19.3476 2.18762 21.0031 4.06626L12 12L21.9502 18.7077Z" fill="#171717" stroke="#F97316" stroke-width="4" mask="url(#path-1-inside-1_246_175)"/>
<circle cx="11.9987" cy="12" r="5.66667" fill="#171717" stroke="#F97316" stroke-width="2"/>
</svg>
